<?xml version="1.0" encoding="UTF-8"?>
<svg id="Layer_2" data-name="Layer 2" xmlns="http://www.w3.org/2000/svg" viewBox="0 0 31.45 7.4">
  <defs>
    <style>
      .cls-1 {
        fill: #231f20;
      }
    </style>
  </defs>
  <g id="Layer_1-2" data-name="Layer 1">
    <g id="nepali_gantavya" data-name="nepali gantavya">
      <g>
        <path class="cls-1" d="M8.49,0V1.31h-.98V7.4h-1.57V1.31h-1.26V3.57c0,.64-.17,1.16-.51,1.55-.34,.39-.85,.59-1.54,.59s-1.18-.18-1.55-.53c-.37-.36-.55-.87-.55-1.53,0-.15,0-.25,.01-.32h1.52v.31c0,.49,.18,.73,.53,.73s.51-.25,.51-.74V1.31H0V0H8.49Z"/>
        <path class="cls-1" d="M20.44,1.31h-.98V7.4h-1.57V3.83h-1.25c-.41,0-.73,.1-.97,.3-.24,.2-.36,.48-.36,.85s.1,.65,.31,.86c.21,.21,.52,.31,.94,.31h.19v1.24h-.43c-.77,0-1.39-.2-1.88-.61-.48-.41-.72-1.02-.72-1.83,0-.44,.08-.83,.25-1.16h-1.36c.18,.31,.27,.65,.27,1.03,0,.41-.09,.76-.28,1.05-.19,.29-.44,.51-.76,.66s-.67,.22-1.05,.22c-.41,0-.78-.08-1.12-.25-.34-.17-.61-.42-.82-.73-.21-.32-.31-.7-.31-1.14s.11-.85,.32-1.17,.5-.56,.86-.72,.76-.24,1.2-.24h6.98V1.31H7.87V0h12.57V1.31Zm-9.04,3.89c.15-.15,.23-.35,.23-.59s-.08-.44-.23-.59-.35-.23-.6-.23-.45,.08-.61,.23c-.16,.15-.24,.35-.24,.59s.08,.44,.24,.59c.16,.15,.36,.23,.61,.23s.45-.08,.6-.23Z"/>
        <path class="cls-1" d="M31.45,1.31h-.97V7.4h-1.58v-1.57c-.45,.5-1.09,.75-1.93,.75s-1.46-.23-1.94-.69c-.19,.28-.45,.5-.76,.65-.32,.16-.69,.24-1.12,.24-.55,0-1.02-.1-1.42-.31-.4-.21-.7-.49-.91-.86-.21-.37-.32-.78-.32-1.24s.1-.84,.31-1.19c.21-.35,.5-.62,.89-.83s.85-.3,1.38-.3c.49,0,.91,.1,1.26,.29,.35,.19,.62,.46,.8,.79,.27-.09,.46-.25,.57-.47,.11-.22,.17-.49,.17-.82v-.53h-6.08V0h11.64V1.31Zm-7.44,3.89c.2-.22,.3-.49,.29-.81v-.05c-.01-.09-.02-.17-.02-.23-.05-.23-.18-.42-.37-.58-.19-.15-.43-.22-.72-.22-.33,0-.61,.1-.82,.3s-.32,.47-.32,.79,.11,.6,.32,.81,.49,.31,.82,.31,.62-.11,.82-.33Zm4.89-3.89h-1.46v.83c0,.56-.13,1.02-.38,1.37-.26,.35-.67,.57-1.23,.66,.03,.33,.18,.59,.44,.8,.26,.2,.61,.3,1.04,.3,.49,0,.87-.15,1.16-.45,.29-.3,.43-.68,.43-1.16V1.31Z"/>
      </g>
    </g>
  </g>
</svg>