<?xml version="1.0" encoding="UTF-8"?>
<svg id="Layer_2" data-name="Layer 2" xmlns="http://www.w3.org/2000/svg" viewBox="0 0 43.55 7.8">
  <defs>
    <style>
      .cls-1 {
        fill: #231f20;
      }
    </style>
  </defs>
  <g id="Layer_1-2" data-name="Layer 1">
    <g id="gantavya">
      <g>
        <path class="cls-1" d="M4.45,1.84c-.11-.19-.28-.33-.49-.43-.21-.1-.46-.15-.75-.15-.5,0-.9,.15-1.2,.44-.3,.29-.45,.68-.45,1.16,0,.52,.16,.92,.47,1.21,.31,.29,.75,.44,1.3,.44,.38,0,.7-.09,.96-.26,.26-.17,.45-.42,.57-.74h-1.95v-1.01h3.34v1.27c-.11,.34-.31,.66-.58,.95-.27,.29-.62,.53-1.04,.71-.42,.18-.89,.27-1.42,.27-.62,0-1.18-.12-1.67-.36-.49-.24-.87-.58-1.14-1.01-.27-.43-.41-.93-.41-1.48S.14,1.82,.41,1.38c.27-.44,.65-.77,1.14-1.02,.49-.24,1.04-.36,1.66-.36,.75,0,1.39,.16,1.91,.49,.52,.33,.86,.78,1.03,1.35h-1.7Z"/>
        <path class="cls-1" d="M6.84,2.23c.19-.35,.46-.61,.8-.8s.71-.28,1.12-.28c.35,0,.66,.06,.93,.19,.27,.13,.47,.3,.62,.5v-.63h1.54V5.68h-1.54v-.63c-.15,.21-.36,.38-.62,.5s-.58,.19-.93,.19c-.41,0-.78-.09-1.11-.28-.34-.19-.6-.46-.8-.81-.19-.35-.29-.75-.29-1.21s.1-.86,.29-1.21Zm3.15,.41c-.21-.2-.47-.3-.78-.3s-.56,.1-.78,.29c-.21,.19-.32,.46-.32,.8s.11,.61,.32,.81c.21,.2,.47,.3,.78,.3s.56-.1,.78-.3c.21-.2,.32-.47,.32-.81s-.11-.61-.32-.81Z"/>
        <path class="cls-1" d="M17.17,1.68c.35,.34,.53,.8,.53,1.4v2.61h-1.53V3.26c0-.3-.09-.53-.26-.7s-.41-.25-.7-.25-.53,.08-.7,.25-.26,.4-.26,.7v2.42h-1.54V1.22h1.54v.59c.16-.2,.37-.35,.63-.47,.26-.12,.56-.17,.89-.17,.59,0,1.06,.17,1.41,.51Z"/>
        <path class="cls-1" d="M21.31,4.52v1.16h-.78c-.56,0-.99-.12-1.3-.36-.31-.24-.47-.64-.47-1.19v-1.78h-.61V1.22h.61V.13h1.54V1.22h1.01v1.14h-1.01v1.79c0,.13,.04,.23,.11,.29s.19,.09,.36,.09h.55Z"/>
        <path class="cls-1" d="M21.9,2.23c.19-.35,.46-.61,.8-.8s.71-.28,1.12-.28c.35,0,.66,.06,.93,.19,.27,.13,.47,.3,.62,.5v-.63h1.54V5.68h-1.54v-.63c-.15,.21-.36,.38-.62,.5s-.58,.19-.93,.19c-.41,0-.78-.09-1.11-.28-.34-.19-.6-.46-.8-.81-.19-.35-.29-.75-.29-1.21s.1-.86,.29-1.21Zm3.15,.41c-.21-.2-.47-.3-.78-.3s-.56,.1-.78,.29c-.21,.19-.32,.46-.32,.8s.11,.61,.32,.81c.21,.2,.47,.3,.78,.3s.56-.1,.78-.3,.32-.47,.32-.81-.11-.61-.32-.81Z"/>
        <path class="cls-1" d="M30.01,4.4l1.09-3.18h1.64l-1.78,4.46h-1.9l-1.78-4.46h1.64l1.09,3.18Z"/>
        <path class="cls-1" d="M38.26,1.22l-3.15,6.58h-1.65l1.15-2.27-2.04-4.31h1.72l1.16,2.79,1.15-2.79h1.66Z"/>
        <path class="cls-1" d="M38.55,2.23c.19-.35,.46-.61,.79-.8s.71-.28,1.12-.28c.35,0,.66,.06,.93,.19s.47,.3,.62,.5v-.63h1.54V5.68h-1.54v-.63c-.15,.21-.36,.38-.62,.5s-.58,.19-.93,.19c-.41,0-.78-.09-1.11-.28-.34-.19-.6-.46-.79-.81-.2-.35-.29-.75-.29-1.21s.1-.86,.29-1.21Zm3.14,.41c-.21-.2-.47-.3-.78-.3s-.56,.1-.78,.29c-.21,.19-.32,.46-.32,.8s.11,.61,.32,.81c.21,.2,.47,.3,.78,.3s.57-.1,.78-.3c.21-.2,.32-.47,.32-.81s-.11-.61-.32-.81Z"/>
      </g>
    </g>
  </g>
</svg>